<?xml version="1.0" encoding="UTF-8" standalone="no"?>
<svg
   width="1024pt"
   height="1024pt"
   viewBox="0 0 1024 1024"
   version="1.1"
   id="svg110"
   sodipodi:docname="Zenith.svg"
   inkscape:version="1.2.1 (9c6d41e410, 2022-07-14)"
   xmlns:inkscape="http://www.inkscape.org/namespaces/inkscape"
   xmlns:sodipodi="http://sodipodi.sourceforge.net/DTD/sodipodi-0.dtd"
   xmlns="http://www.w3.org/2000/svg"
   xmlns:svg="http://www.w3.org/2000/svg">
  <defs
     id="defs114" />
  <sodipodi:namedview
     id="namedview112"
     pagecolor="#505050"
     bordercolor="#eeeeee"
     borderopacity="1"
     inkscape:showpageshadow="0"
     inkscape:pageopacity="0"
     inkscape:pagecheckerboard="0"
     inkscape:deskcolor="#505050"
     inkscape:document-units="pt"
     showgrid="false"
     inkscape:zoom="0.31384278"
     inkscape:cx="280.39517"
     inkscape:cy="1000.501"
     inkscape:window-width="1920"
     inkscape:window-height="1051"
     inkscape:window-x="-9"
     inkscape:window-y="-9"
     inkscape:window-maximized="1"
     inkscape:current-layer="svg110" />
  <g
     id="#fcfefdff"
     style="fill:#000000;fill-opacity:1">
    <path
       fill="#fcfefd"
       opacity="1.00"
       d=" M 812.08 212.75 C 834.95 210.17 858.05 209.97 881.02 211.22 C 893.16 211.53 905.15 213.70 917.04 216.03 C 924.24 217.46 931.26 219.82 937.64 223.47 C 944.95 227.03 950.93 233.87 952.27 242.03 C 954.66 254.17 949.68 266.32 943.44 276.52 C 937.50 286.77 930.57 296.70 921.26 304.18 C 917.59 305.00 913.71 304.51 910.09 305.64 C 897.73 308.98 885.38 312.63 873.73 317.98 C 877.71 305.26 882.49 292.47 882.92 279.01 C 883.41 268.07 876.82 257.71 867.51 252.31 C 860.25 248.13 852.15 245.71 844.11 243.55 C 829.74 239.53 814.77 238.75 799.96 237.71 C 780.40 236.70 760.89 239.02 741.50 241.30 C 730.76 242.97 720.00 244.70 709.44 247.33 C 696.21 250.48 682.93 253.50 669.89 257.35 C 675.91 259.48 681.18 263.15 686.70 266.28 C 697.41 272.99 707.91 280.16 717.17 288.82 C 726.01 296.45 733.65 305.32 741.97 313.49 C 739.35 315.11 736.66 316.60 734.10 318.29 C 720.71 302.83 705.81 288.54 688.82 277.06 C 680.43 271.72 672.19 265.97 662.90 262.26 C 661.59 261.86 660.18 261.12 658.84 261.77 C 648.99 265.34 638.90 268.17 629.07 271.79 C 618.02 275.47 607.45 280.69 596.01 283.15 C 593.64 283.61 592.31 281.38 590.89 279.97 C 587.54 276.43 582.72 274.91 578.11 273.85 C 567.98 271.88 557.78 270.22 547.80 267.57 C 535.33 264.90 522.91 261.53 510.14 260.86 C 515.82 258.20 522.41 259.03 528.42 257.53 C 538.54 256.09 548.83 257.02 559.00 257.48 C 567.31 257.70 575.42 259.74 583.43 261.83 C 586.92 262.90 590.65 263.75 593.61 266.01 C 595.81 267.73 596.49 270.85 598.83 272.36 C 612.19 267.98 625.48 263.32 638.80 258.77 C 642.71 257.37 646.90 256.82 650.66 254.99 C 637.81 248.76 624.46 243.57 610.94 238.98 C 592.48 232.48 573.15 228.85 553.90 225.53 C 506.97 219.04 458.40 224.42 414.12 241.33 C 386.45 251.07 360.49 265.48 337.07 283.09 C 324.24 293.50 311.99 304.69 300.78 316.83 C 288.81 328.66 278.44 342.01 268.75 355.75 C 258.65 371.61 249.48 388.20 243.20 405.97 C 238.32 419.10 234.35 432.62 231.65 446.37 C 228.68 447.65 225.62 448.69 222.54 449.64 C 226.47 428.86 232.45 408.42 241.12 389.10 C 252.48 363.77 268.22 340.48 286.87 319.94 C 291.67 315.02 296.54 310.16 300.98 304.91 C 306.83 298.49 313.17 292.54 319.57 286.67 C 333.14 275.60 346.99 264.69 362.48 256.39 C 391.68 239.30 423.85 227.47 456.89 220.37 C 458.93 219.91 461.00 219.68 463.08 219.49 C 463.17 219.78 463.36 220.38 463.46 220.68 C 463.61 220.26 463.91 219.43 464.05 219.01 C 469.05 218.60 473.97 217.55 478.95 217.01 C 523.46 211.91 569.03 216.70 611.62 230.54 C 627.01 235.72 642.26 241.46 656.98 248.33 C 664.70 246.75 671.28 242.04 678.80 239.84 C 722.05 225.93 766.90 217.28 812.08 212.75 M 907.42 275.16 C 908.35 275.56 909.29 275.98 910.23 276.40 C 911.83 275.53 914.03 273.02 911.49 271.81 C 909.12 270.20 907.49 273.11 907.42 275.16 M 899.64 283.81 C 898.53 285.68 900.78 286.98 902.31 287.48 C 902.79 287.17 903.74 286.56 904.21 286.25 C 904.19 285.44 904.18 284.64 904.18 283.84 C 902.75 283.33 900.88 282.48 899.64 283.81 M 914.42 293.64 C 914.03 293.91 913.26 294.45 912.88 294.72 C 912.83 295.68 912.80 296.63 912.78 297.60 C 913.96 297.71 915.21 297.95 916.33 297.33 C 917.11 296.22 916.71 294.92 916.50 293.71 C 915.98 293.69 914.94 293.66 914.42 293.64 Z"
       id="path39"
       style="fill:#000000;fill-opacity:1" />
    <path
       fill="#fcfefd"
       opacity="1.00"
       d=" M 548.94 245.45 C 555.58 244.29 562.35 244.69 569.06 244.91 C 573.06 245.00 576.85 246.42 580.65 247.55 C 589.04 250.26 597.73 251.99 605.89 255.40 C 609.03 256.82 612.72 257.62 615.10 260.28 C 610.95 260.30 606.97 259.02 602.99 258.03 C 592.78 255.35 582.30 253.86 572.20 250.76 C 564.59 248.38 556.71 247.14 548.94 245.45 Z"
       id="path41"
       style="fill:#000000;fill-opacity:1" />
    <path
       fill="#fcfefd"
       opacity="1.00"
       d=" M 415.10 264.27 C 418.28 263.03 421.41 261.34 424.91 261.32 C 410.80 268.36 396.16 274.36 382.60 282.47 C 378.80 285.44 373.60 287.30 371.70 292.09 C 372.15 293.82 372.60 296.08 374.97 295.53 C 383.69 294.20 389.92 287.28 397.61 283.60 C 400.04 282.46 402.26 280.80 404.89 280.13 C 398.28 286.17 390.68 291.01 383.89 296.83 C 377.14 303.07 370.63 309.57 364.14 316.08 C 359.35 320.61 355.86 326.50 354.03 332.82 C 355.89 332.69 357.87 332.71 359.53 331.71 C 366.43 328.13 372.55 323.27 378.98 318.94 C 384.12 314.98 389.96 312.09 395.42 308.61 C 400.97 304.95 406.58 301.33 412.61 298.50 C 416.31 296.58 419.95 294.41 424.05 293.40 C 427.05 292.82 430.12 292.69 433.13 292.08 C 437.87 290.87 442.16 288.35 446.89 287.11 C 450.42 286.09 454.25 286.35 457.60 284.67 C 457.96 286.97 455.32 287.73 454.02 289.09 C 452.14 290.32 451.18 292.71 452.04 294.85 C 454.06 294.90 456.15 294.90 458.08 294.16 C 465.24 291.57 472.60 289.59 479.87 287.35 C 499.18 282.45 519.22 281.69 539.06 281.40 C 545.29 281.56 551.96 281.28 557.56 284.49 C 561.03 286.52 564.87 288.18 568.99 287.90 C 577.30 287.60 585.37 289.75 593.43 291.42 C 607.30 294.58 621.19 298.35 633.87 304.95 C 644.04 309.80 654.61 314.71 662.21 323.33 C 656.33 325.59 650.59 328.20 644.91 330.88 C 637.21 323.55 626.83 320.13 616.85 317.18 C 610.68 315.13 604.41 313.27 597.95 312.41 C 596.18 312.24 594.28 312.98 594.25 315.01 C 595.03 317.32 597.59 317.82 599.56 318.69 C 609.61 322.37 619.64 326.15 629.40 330.55 C 632.40 331.87 635.23 333.59 637.72 335.72 C 634.62 338.82 631.85 342.32 629.84 346.23 C 622.79 341.79 615.97 336.75 608.02 334.01 C 604.61 332.85 601.39 331.18 597.91 330.22 C 596.01 330.08 594.68 331.79 595.24 333.58 C 597.78 336.75 601.92 337.87 605.25 340.00 C 601.37 339.53 597.67 338.22 593.94 337.15 C 572.79 332.22 551.78 325.99 530.02 324.34 C 525.93 324.13 521.79 324.58 517.78 323.58 C 516.79 322.07 516.10 319.76 513.97 319.60 C 510.62 319.34 507.32 320.36 503.97 320.47 C 504.85 318.43 507.12 318.01 509.00 317.31 C 525.80 312.49 543.28 308.71 560.86 310.57 C 562.69 308.36 561.00 306.13 558.52 305.64 C 550.39 304.54 542.17 305.74 534.01 305.20 C 530.00 305.16 525.98 304.37 521.99 304.88 C 512.87 306.99 503.60 308.47 494.53 310.80 C 486.68 313.31 478.67 315.30 470.90 318.05 C 465.37 320.03 460.50 323.44 455.00 325.47 C 451.97 326.22 448.74 325.82 445.75 326.85 C 439.43 329.08 433.91 333.26 427.50 335.24 C 428.41 332.67 430.84 331.35 432.95 329.90 C 437.92 326.52 443.10 323.43 448.49 320.76 C 453.93 317.96 460.20 316.83 465.18 313.14 C 466.49 310.11 462.62 310.30 460.91 311.17 C 452.13 314.44 442.95 316.59 434.38 320.43 C 420.83 326.43 407.49 333.47 396.33 343.35 C 387.86 350.09 380.99 358.56 373.82 366.60 C 367.24 375.34 358.16 381.78 351.57 390.51 C 346.01 398.27 342.66 407.30 338.58 415.86 C 338.04 417.41 336.13 416.71 334.93 416.71 C 327.20 415.71 320.09 419.78 312.61 420.87 C 312.75 418.52 313.50 416.28 314.34 414.11 C 313.96 413.57 313.59 413.04 313.21 412.51 C 313.73 412.44 314.76 412.29 315.28 412.21 C 317.28 402.31 322.87 393.62 327.82 384.96 C 333.12 376.15 339.44 367.93 346.40 360.38 C 349.31 357.12 347.07 352.34 348.72 348.52 C 344.61 348.11 341.32 350.98 338.44 353.48 C 331.03 360.01 326.27 368.80 320.97 376.99 C 315.75 385.68 310.71 394.47 305.42 403.11 C 301.72 409.70 300.64 417.26 299.49 424.61 C 298.91 424.70 297.75 424.86 297.17 424.95 C 298.41 417.91 300.28 411.00 301.97 404.06 C 302.73 400.25 303.95 396.19 302.52 392.39 C 301.19 390.64 299.09 389.72 297.57 388.17 C 296.60 386.81 297.33 385.18 297.70 383.76 C 299.26 378.70 302.05 373.76 306.49 370.70 C 310.72 367.55 315.38 364.42 317.63 359.45 C 320.10 354.41 323.17 349.71 326.36 345.10 C 332.09 336.14 340.08 329.00 347.72 321.72 C 350.43 319.40 351.50 315.53 350.51 312.12 C 343.43 313.02 338.76 319.13 333.51 323.35 C 326.23 329.08 321.31 337.14 314.54 343.37 C 315.10 339.94 317.40 337.10 319.32 334.30 C 329.64 322.04 340.29 309.93 352.53 299.53 C 371.55 284.86 392.66 272.85 415.10 264.27 M 426.62 300.69 C 426.24 301.85 425.18 303.33 426.35 304.39 C 428.61 305.60 432.68 304.96 432.89 301.81 C 430.79 302.15 431.56 300.67 432.39 299.68 C 430.45 299.99 428.54 300.34 426.62 300.69 M 569.41 308.17 C 569.32 308.87 569.15 310.26 569.06 310.96 C 569.37 312.79 571.80 312.29 573.14 312.43 C 573.95 311.77 574.79 311.14 575.66 310.55 C 574.21 308.53 571.71 308.13 569.41 308.17 M 404.52 315.56 C 404.70 316.37 404.87 317.17 405.04 317.99 C 406.25 317.66 408.06 317.85 408.16 316.13 C 407.30 314.71 405.80 315.35 404.52 315.56 M 377.23 333.21 C 374.81 335.21 373.82 338.26 373.08 341.20 C 374.01 342.12 374.94 343.05 375.86 344.00 C 381.33 344.75 386.01 341.29 390.05 338.08 C 392.54 335.86 395.40 333.54 396.22 330.13 C 396.40 327.31 394.38 323.31 391.04 323.92 C 385.76 325.83 381.35 329.50 377.23 333.21 Z"
       id="path43"
       style="fill:#000000;fill-opacity:1" />
    <path
       fill="#fcfefd"
       opacity="1.00"
       d=" M 455.04 270.61 C 461.94 269.35 468.86 267.33 475.89 267.38 C 470.11 270.22 464.12 272.58 457.96 274.48 C 451.07 277.13 444.26 280.01 437.16 282.06 C 426.76 285.13 417.58 291.05 407.83 295.63 C 406.72 295.98 405.58 297.25 404.38 296.44 C 407.90 292.52 412.90 290.19 417.19 287.18 C 428.69 279.42 441.86 274.65 455.04 270.61 Z"
       id="path45"
       style="fill:#000000;fill-opacity:1" />
    <path
       fill="#fcfefd"
       opacity="1.00"
       d=" M 814.27 289.48 C 832.24 283.81 850.55 279.12 868.49 273.38 C 861.68 300.04 853.88 326.45 846.51 352.97 C 845.52 356.24 844.46 359.50 843.98 362.90 C 850.58 356.50 856.24 349.11 863.82 343.76 C 876.02 335.52 889.26 328.59 903.49 324.63 C 911.16 322.59 919.27 320.58 927.19 322.50 C 933.84 323.51 938.97 329.52 939.79 336.07 C 941.92 348.97 937.35 361.59 934.21 373.92 C 923.68 411.21 913.29 448.55 902.76 485.83 C 894.25 489.92 884.91 491.69 875.97 494.59 C 866.03 497.76 855.85 500.15 845.98 503.56 C 854.00 475.35 862.28 447.21 870.47 419.05 C 872.73 409.75 875.85 400.63 877.10 391.11 C 877.58 386.51 877.18 380.11 871.91 378.47 C 865.87 376.96 859.81 379.74 854.44 382.26 C 843.52 387.13 836.31 397.64 832.19 408.52 C 826.69 423.71 823.29 439.55 818.54 454.97 C 813.07 473.62 808.32 492.46 802.84 511.10 C 801.88 513.48 802.12 517.05 799.39 518.24 C 796.06 519.80 792.50 520.75 789.02 521.89 C 771.42 527.27 753.80 532.63 736.43 538.70 C 723.83 542.90 711.28 547.27 698.46 550.76 C 690.79 552.94 683.06 555.72 674.97 555.29 C 669.76 555.45 663.84 553.45 661.31 548.56 C 657.93 542.52 659.03 535.28 660.42 528.83 C 669.79 493.25 681.13 458.21 690.35 422.59 C 684.41 424.00 678.59 425.84 672.72 427.49 C 667.50 446.15 662.15 464.79 656.62 483.36 C 649.00 510.62 641.21 537.83 633.38 565.03 C 632.57 567.68 632.11 571.32 628.76 571.86 C 611.05 577.16 593.67 583.53 575.85 588.49 C 581.79 568.44 587.68 548.37 593.27 528.22 C 600.64 504.80 606.61 480.98 613.78 457.50 C 617.22 445.36 620.66 433.21 624.32 421.14 C 624.87 419.47 625.72 417.94 626.60 416.44 C 651.01 408.80 675.48 401.34 699.85 393.53 C 701.11 390.96 701.98 388.22 702.73 385.47 C 705.52 374.85 708.79 364.37 711.72 353.79 C 712.37 351.71 712.83 349.07 715.09 348.13 C 723.49 344.92 731.49 340.78 739.46 336.63 C 751.41 330.26 763.43 323.90 774.50 316.07 C 768.70 335.17 763.31 354.39 757.44 373.47 C 767.20 370.55 776.83 367.22 786.66 364.54 C 784.11 372.61 781.46 380.66 778.89 388.74 C 777.71 391.94 776.77 396.20 772.94 397.16 C 764.47 399.94 755.83 402.18 747.39 405.04 C 741.28 428.37 733.77 451.30 727.35 474.55 C 725.17 482.66 722.18 490.55 720.48 498.78 C 719.98 501.74 719.18 505.70 722.07 507.73 C 725.89 509.73 729.83 507.30 733.60 506.44 C 740.56 504.65 747.11 501.51 754.16 500.10 C 757.28 493.38 758.57 486.03 760.65 478.96 C 778.87 415.90 795.52 352.39 814.27 289.48 Z"
       id="path47"
       style="fill:#000000;fill-opacity:1" />
    <path
       fill="#fcfefd"
       opacity="1.00"
       d=" M 467.94 282.06 C 473.67 278.38 480.43 276.82 487.03 275.54 C 489.99 274.91 493.05 275.07 496.01 275.65 C 486.81 279.24 476.36 278.70 467.70 283.74 C 467.76 283.32 467.88 282.48 467.94 282.06 Z"
       id="path49"
       style="fill:#000000;fill-opacity:1" />
    <path
       fill="#fcfefd"
       opacity="1.00"
       d=" M 624.30 284.72 C 629.26 285.90 634.07 287.64 638.74 289.67 C 638.78 290.05 638.87 290.82 638.91 291.21 C 633.37 292.91 626.48 290.07 624.30 284.72 Z"
       id="path51"
       style="fill:#000000;fill-opacity:1" />
    <path
       fill="#fcfefd"
       opacity="1.00"
       d=" M 649.12 285.36 C 657.16 288.24 664.97 291.85 672.11 296.58 C 678.54 300.09 684.70 304.07 690.69 308.28 C 693.95 310.53 695.77 314.15 697.51 317.58 C 701.73 319.39 706.26 320.93 710.90 320.32 C 713.95 322.75 715.97 326.25 718.77 328.98 C 716.89 329.64 714.31 331.49 712.94 328.98 C 705.04 318.76 690.90 317.65 678.98 317.81 C 674.40 310.95 667.80 305.84 662.36 299.72 C 658.77 295.65 654.39 292.39 650.64 288.48 C 649.70 287.68 649.19 286.57 649.12 285.36 Z"
       id="path53"
       style="fill:#000000;fill-opacity:1" />
    <path
       fill="#fcfefd"
       opacity="1.00"
       d=" M 652.11 305.33 C 657.49 304.78 662.34 308.60 665.74 312.44 C 661.78 313.23 658.36 310.37 654.80 309.12 C 653.02 308.65 652.45 306.91 652.11 305.33 Z"
       id="path55"
       style="fill:#000000;fill-opacity:1" />
    <path
       fill="#fcfefd"
       opacity="1.00"
       d=" M 672.50 337.64 C 678.82 335.69 685.47 334.81 692.09 335.34 C 696.29 335.99 699.55 339.72 700.22 343.84 C 701.72 351.92 699.15 360.20 695.50 367.37 C 690.92 376.36 682.57 382.91 673.07 386.08 C 658.26 390.93 643.20 395.01 628.35 399.74 C 629.31 395.09 631.03 390.65 631.96 386.01 C 634.03 376.72 636.17 367.17 641.48 359.11 C 648.37 348.10 659.97 340.61 672.50 337.64 Z"
       id="path57"
       style="fill:#000000;fill-opacity:1" />
    <path
       fill="#fcfefd"
       opacity="1.00"
       d=" M 471.45 343.29 C 475.78 341.95 480.23 340.64 484.80 340.68 C 483.67 341.73 482.42 342.70 480.92 343.16 C 472.60 346.08 464.55 349.74 456.72 353.80 C 451.56 356.62 446.42 359.63 440.73 361.27 C 441.76 360.14 442.80 359.00 444.04 358.08 C 452.51 352.03 461.70 346.94 471.45 343.29 Z"
       id="path59"
       style="fill:#000000;fill-opacity:1" />
    <path
       fill="#fcfefd"
       opacity="1.00"
       d=" M 525.27 346.13 C 529.75 342.78 535.68 343.47 540.95 343.14 C 548.32 343.12 556.11 341.73 563.11 344.76 C 570.78 348.08 578.24 351.87 585.92 355.18 C 596.55 360.73 607.78 365.13 617.97 371.50 C 617.36 376.43 615.58 381.10 614.55 385.95 C 607.27 379.83 597.80 377.74 589.41 373.71 C 587.59 372.75 585.49 372.00 584.41 370.13 C 592.50 370.53 600.06 373.62 607.77 375.74 C 608.50 372.40 605.14 370.77 602.87 369.17 C 593.80 364.05 584.60 359.10 575.01 355.01 C 567.91 351.80 559.93 355.80 552.74 353.08 C 545.95 350.93 539.26 347.95 532.02 347.91 C 526.88 347.27 521.91 349.99 516.78 348.74 C 519.69 348.23 522.76 347.84 525.27 346.13 Z"
       id="path61"
       style="fill:#000000;fill-opacity:1" />
    <path
       fill="#fcfefd"
       opacity="1.00"
       d=" M 292.41 361.35 C 295.75 355.52 299.69 350.06 304.06 344.97 C 303.34 349.07 301.07 352.63 299.13 356.24 C 297.01 359.93 295.01 363.79 291.79 366.67 C 291.85 364.91 291.43 362.95 292.41 361.35 Z"
       id="path63"
       style="fill:#000000;fill-opacity:1" />
    <path
       fill="#fcfefd"
       opacity="1.00"
       d=" M 593.92 349.65 C 597.34 350.03 600.80 350.20 604.19 350.85 C 610.65 352.75 616.67 355.85 622.87 358.43 C 621.81 360.47 620.88 362.58 620.52 364.87 C 613.07 359.96 605.42 355.23 597.09 351.96 C 595.88 351.41 594.48 350.95 593.92 349.65 Z"
       id="path65"
       style="fill:#000000;fill-opacity:1" />
    <path
       fill="#fcfefd"
       opacity="1.00"
       d=" M 398.11 377.37 C 407.41 371.46 414.28 362.35 423.86 356.90 C 419.36 363.59 412.85 368.63 407.93 375.00 C 400.63 385.49 393.62 396.22 387.68 407.56 C 384.62 411.22 382.96 415.99 379.53 419.27 C 380.68 414.20 383.53 409.81 385.21 404.95 C 385.49 401.61 384.05 398.28 384.88 394.96 C 386.25 387.42 391.69 381.22 398.11 377.37 Z"
       id="path67"
       style="fill:#000000;fill-opacity:1" />
    <path
       fill="#fcfefd"
       opacity="1.00"
       d=" M 354.10 413.01 C 357.48 401.80 363.45 391.07 372.80 383.76 C 368.65 391.19 364.10 398.61 362.05 406.95 C 361.55 408.91 361.31 412.53 364.33 412.29 C 367.87 410.94 369.98 407.57 372.80 405.23 C 371.50 408.22 369.15 410.58 367.57 413.41 C 362.24 422.60 358.31 432.58 355.62 442.84 C 355.27 442.25 354.93 441.67 354.59 441.10 C 355.77 437.57 357.52 433.84 356.38 430.08 C 355.77 424.35 352.32 418.85 354.10 413.01 Z"
       id="path69"
       style="fill:#000000;fill-opacity:1" />
    <path
       fill="#fcfefd"
       opacity="1.00"
       d=" M 262.58 415.59 C 265.44 407.58 268.48 399.58 272.57 392.11 C 272.83 395.05 273.60 398.02 273.20 400.99 C 272.11 405.41 269.57 409.27 268.10 413.56 C 264.93 420.96 262.81 428.73 260.87 436.53 C 259.56 437.07 258.26 437.64 256.96 438.21 C 257.66 430.45 259.51 422.76 262.58 415.59 Z"
       id="path71"
       style="fill:#000000;fill-opacity:1" />
    <path
       fill="#fcfefd"
       opacity="1.00"
       d=" M 282.65 406.50 C 284.16 405.07 283.86 407.42 283.55 408.33 C 281.56 416.30 278.29 424.15 278.55 432.51 C 275.88 433.10 273.23 433.77 270.59 434.43 C 274.39 425.05 276.76 414.89 282.65 406.50 Z"
       id="path73"
       style="fill:#000000;fill-opacity:1" />
    <path
       fill="#fcfefd"
       opacity="1.00"
       d=" M 338.63 436.67 C 339.23 433.79 339.75 430.90 340.37 428.04 C 340.75 431.94 340.98 435.92 342.28 439.67 C 344.41 440.25 346.62 440.33 348.82 440.23 C 347.85 444.40 345.15 447.96 344.05 452.13 C 342.88 454.71 343.40 458.25 341.05 460.12 C 340.98 456.48 340.80 452.67 338.66 449.58 C 335.83 445.51 339.74 440.38 337.39 436.33 C 337.70 436.42 338.32 436.58 338.63 436.67 Z"
       id="path75"
       style="fill:#000000;fill-opacity:1" />
    <path
       fill="#fcfefd"
       opacity="1.00"
       d=" M 522.75 453.93 C 538.54 441.01 557.68 431.90 577.99 429.14 C 583.42 428.51 589.54 428.07 594.07 431.75 C 600.87 436.86 601.36 446.23 601.14 454.03 C 600.27 463.18 597.44 472.02 594.92 480.83 C 591.57 493.26 587.51 505.49 583.86 517.83 C 578.78 536.34 572.58 554.52 567.45 573.01 C 565.76 579.07 563.83 585.06 562.01 591.08 C 561.73 593.11 559.52 593.46 557.95 594.12 C 540.33 599.93 522.64 605.51 504.92 611.00 C 510.87 589.22 517.81 567.73 523.92 546.01 C 528.15 531.33 532.79 516.78 536.91 502.08 C 538.13 497.53 539.38 492.78 538.62 488.05 C 537.64 484.34 533.91 481.24 529.92 482.10 C 518.47 483.54 508.59 490.64 500.91 498.90 C 496.12 504.70 493.37 511.83 491.11 518.92 C 481.12 552.20 471.30 585.52 461.74 618.92 C 461.09 620.74 460.41 622.67 458.98 624.02 C 456.27 625.72 453.07 626.30 450.10 627.40 C 438.75 630.78 427.50 634.47 416.26 638.21 C 412.17 639.35 408.17 641.07 403.89 641.36 C 407.16 631.73 409.56 621.83 412.53 612.11 C 419.07 590.72 425.09 569.17 431.73 547.81 C 439.77 521.59 446.86 495.07 454.90 468.85 C 455.13 466.46 457.66 466.04 459.52 465.44 C 473.02 461.60 486.31 456.94 500.01 453.81 C 499.22 453.48 498.43 453.17 497.64 452.88 L 499.98 452.35 C 499.91 452.63 499.76 453.20 499.69 453.48 C 503.17 452.68 506.59 451.64 509.95 450.44 C 508.73 457.34 505.80 463.92 504.62 470.90 C 510.70 465.28 516.16 458.98 522.75 453.93 Z"
       id="path77"
       style="fill:#000000;fill-opacity:1" />
    <path
       fill="#fcfefd"
       opacity="1.00"
       d=" M 305.12 441.13 C 310.69 439.44 316.33 437.99 321.91 436.34 C 318.71 448.42 314.72 460.29 311.76 472.44 C 310.67 477.44 306.74 481.03 303.79 484.99 C 292.07 500.18 280.40 515.41 268.54 530.49 C 256.32 545.62 244.95 561.40 232.75 576.55 C 221.58 591.02 210.13 605.28 198.73 619.57 C 188.49 633.35 177.89 646.85 167.59 660.58 C 166.93 661.53 166.42 662.58 165.90 663.63 C 170.01 662.02 174.29 660.94 178.53 659.73 C 202.25 652.75 225.84 645.30 249.53 638.23 C 250.87 635.26 250.88 631.98 251.33 628.82 C 254.63 608.94 260.58 589.65 266.47 570.42 C 270.95 555.84 279.61 542.98 289.56 531.59 C 295.52 525.47 301.81 519.57 309.10 515.05 C 317.88 509.62 326.99 504.70 336.48 500.59 C 356.20 492.84 376.06 484.91 397.00 481.11 C 405.81 479.67 415.94 478.91 423.46 484.64 C 430.86 490.28 432.69 500.28 432.09 509.05 C 431.15 518.18 429.00 527.14 426.42 535.94 C 424.43 543.80 421.87 551.50 418.86 559.03 C 417.89 561.88 414.54 562.39 412.12 563.43 C 389.24 571.58 367.07 581.63 343.94 589.08 C 333.59 592.03 323.44 595.82 312.86 597.84 C 311.40 600.90 310.65 604.22 309.68 607.46 C 308.11 612.92 306.20 618.34 305.72 624.04 C 305.33 628.33 308.41 632.75 312.90 633.03 C 323.45 633.62 333.53 629.65 343.39 626.46 C 347.73 624.48 352.37 622.16 355.10 618.11 C 356.69 613.28 356.61 608.03 358.22 603.22 C 361.29 600.91 365.36 600.35 368.95 599.09 C 383.37 595.12 397.50 590.09 412.00 586.39 C 409.07 595.35 404.42 603.61 401.79 612.67 C 399.35 618.11 399.02 624.46 395.30 629.29 C 393.09 632.69 389.53 634.81 386.39 637.24 C 368.86 650.87 347.87 658.96 327.04 666.03 C 310.41 671.05 293.56 676.47 276.03 676.67 C 269.85 676.31 263.18 675.82 258.08 671.90 C 253.85 668.51 250.65 664.07 246.82 660.27 C 244.82 666.46 242.72 672.64 241.12 678.96 C 240.24 682.21 239.57 685.72 237.25 688.30 C 235.39 689.68 233.07 690.14 230.89 690.78 C 189.65 703.17 148.39 715.52 107.24 728.20 C 94.47 732.26 81.49 735.67 68.75 739.82 C 72.79 727.38 75.56 714.52 79.95 702.21 C 95.55 681.81 111.63 661.76 127.39 641.48 C 135.27 632.27 142.20 622.30 149.88 612.93 C 159.98 600.66 169.19 587.68 179.37 575.47 C 179.10 575.16 178.58 574.55 178.31 574.24 C 178.68 574.44 179.41 574.84 179.77 575.04 C 189.27 563.37 198.58 551.54 207.79 539.65 C 214.75 530.31 222.38 521.48 229.08 511.94 C 198.66 519.97 168.81 530.01 138.53 538.53 C 143.29 521.45 148.04 504.34 153.39 487.43 C 159.31 484.50 165.94 483.55 172.12 481.30 C 216.48 468.00 260.91 454.92 305.12 441.13 M 354.96 525.16 C 345.42 527.82 336.18 533.08 330.58 541.47 C 324.07 550.36 322.29 561.41 319.00 571.66 C 335.26 567.27 351.50 562.67 367.24 556.63 C 369.71 549.22 371.88 541.68 373.18 533.97 C 373.41 531.02 373.85 527.61 371.92 525.10 C 366.88 521.55 360.33 523.41 354.96 525.16 Z"
       id="path79"
       style="fill:#000000;fill-opacity:1" />
    <path
       fill="#fcfefd"
       opacity="1.00"
       d=" M 323.65 487.66 C 328.09 479.58 330.12 470.54 333.20 461.92 C 334.95 468.93 334.59 476.21 334.53 483.37 C 330.92 484.84 327.24 486.14 323.65 487.66 Z"
       id="path81"
       style="fill:#000000;fill-opacity:1" />
    <path
       fill="#fcfefd"
       opacity="1.00"
       d=" M 820.69 509.48 C 822.97 503.17 824.32 496.57 826.09 490.12 C 826.43 495.68 825.51 501.36 826.60 506.86 C 828.29 510.34 827.43 514.26 827.28 517.96 C 825.87 535.48 823.70 553.00 819.44 570.07 C 812.59 598.50 802.48 626.29 787.62 651.56 C 780.63 663.56 773.02 675.23 764.31 686.07 C 750.51 703.77 735.53 720.81 717.85 734.74 C 704.64 747.03 689.49 757.01 674.06 766.28 C 657.55 775.74 640.47 784.40 622.43 790.59 C 592.56 801.80 560.91 808.22 529.03 809.63 C 507.68 810.13 486.20 809.82 465.08 806.30 C 440.30 802.68 416.35 794.99 392.89 786.42 C 390.70 785.79 388.35 784.48 386.09 785.59 C 367.10 792.01 348.23 798.84 328.91 804.20 C 284.03 816.41 238.37 826.59 191.92 830.28 C 183.97 831.28 175.95 831.46 167.94 831.33 C 146.52 831.47 124.46 829.31 104.79 820.25 C 92.08 814.28 80.48 802.93 78.78 788.42 C 76.81 776.56 81.79 765.12 86.51 754.55 C 87.19 752.31 89.62 751.99 91.52 751.36 C 113.26 744.76 134.91 737.85 156.61 731.11 C 150.84 745.23 152.40 763.32 163.97 774.10 C 178.27 787.75 197.88 793.68 216.92 796.97 C 232.48 798.73 248.19 799.12 263.84 798.72 C 301.75 795.77 338.84 786.60 375.22 775.93 C 352.11 764.81 330.73 750.35 311.06 733.94 C 297.64 722.10 284.32 709.73 274.33 694.77 C 277.52 695.03 280.73 694.99 283.92 694.74 C 312.05 727.54 347.11 754.57 386.46 772.53 C 390.48 772.86 394.22 770.89 398.06 770.00 C 426.82 760.40 455.24 749.67 482.81 737.04 C 490.74 733.15 498.85 729.64 507.00 726.27 C 497.00 726.49 486.89 727.13 477.01 725.18 C 464.96 723.13 452.66 722.07 440.90 718.62 C 439.13 718.90 437.03 720.72 438.49 722.53 C 444.94 728.34 454.32 728.07 461.42 732.71 C 461.67 733.16 462.18 734.08 462.43 734.53 C 448.82 736.38 435.18 733.82 421.80 731.49 C 404.31 728.15 387.68 720.93 372.87 711.12 C 366.02 706.72 360.94 699.93 353.55 696.34 C 349.62 694.41 345.18 694.15 340.88 694.11 C 335.08 693.23 330.22 689.20 327.02 684.45 C 331.65 682.82 336.49 681.92 341.11 680.25 C 349.12 677.78 356.50 673.73 364.01 670.09 C 368.17 672.27 371.22 676.24 375.22 678.78 C 385.14 685.19 395.03 692.52 406.86 694.84 C 410.53 695.67 414.56 694.21 418.02 696.00 C 429.94 702.62 443.80 706.92 457.51 705.64 C 457.41 704.67 457.32 703.70 457.24 702.75 C 449.82 699.51 441.76 697.99 434.40 694.57 C 430.95 692.92 427.20 691.61 424.38 688.94 C 421.90 686.38 421.00 682.82 419.13 679.87 C 417.25 676.52 414.05 674.25 411.00 672.06 C 408.22 669.87 404.43 669.45 401.94 666.84 C 395.30 671.22 388.07 664.70 384.73 659.13 C 386.88 658.00 389.07 656.95 391.19 655.77 C 393.83 657.64 396.52 660.01 399.96 659.93 C 405.31 660.27 410.39 658.26 415.19 656.14 C 420.20 658.57 424.75 661.87 429.87 664.10 C 437.93 667.74 446.78 669.91 454.22 674.75 C 452.17 675.08 450.23 675.80 448.67 677.21 C 449.88 680.25 453.23 681.19 456.02 682.17 C 466.82 685.49 477.61 689.17 488.90 690.43 C 504.81 692.07 521.06 693.43 536.87 690.29 C 543.01 689.14 548.79 686.07 555.11 686.07 C 554.37 687.92 552.91 689.36 551.08 690.15 C 543.62 693.54 535.84 696.28 527.77 697.82 C 517.98 700.56 507.75 701.18 497.93 703.77 C 496.06 703.74 496.20 705.58 495.92 706.90 C 497.51 707.68 499.16 708.49 501.01 708.37 C 508.97 708.38 516.94 708.84 524.90 708.35 C 528.32 708.15 531.76 708.02 535.18 708.49 C 543.42 709.78 551.90 709.06 559.99 707.10 C 563.37 706.38 566.67 705.05 570.18 705.18 C 563.75 710.06 555.65 711.99 547.83 713.26 C 544.76 713.80 541.33 715.13 540.70 718.60 C 542.77 719.09 544.92 719.33 547.05 718.95 C 564.47 717.45 581.17 711.39 596.79 703.76 C 605.39 699.10 614.28 694.80 621.99 688.70 C 626.20 685.93 629.75 682.28 634.09 679.69 C 631.99 685.41 627.17 689.47 623.28 693.96 C 621.13 696.64 617.80 697.94 615.53 700.45 C 622.74 697.40 629.52 693.27 635.39 688.06 C 640.62 683.48 646.18 679.28 651.46 674.75 C 658.26 667.80 664.60 660.37 670.25 652.44 C 673.22 648.07 675.95 643.50 679.63 639.68 C 682.82 636.45 687.79 635.36 690.34 631.44 C 692.39 628.77 692.78 625.35 693.65 622.20 C 695.99 611.64 700.81 601.89 705.27 592.10 C 707.01 587.90 709.13 583.64 709.30 579.02 C 709.39 575.90 707.16 573.30 704.32 572.33 C 701.58 576.33 699.59 580.81 696.46 584.54 C 691.23 592.57 686.60 601.04 680.62 608.55 C 677.37 612.80 671.85 614.37 668.56 618.56 C 666.25 621.41 664.06 624.46 662.91 627.99 C 661.86 630.82 662.90 634.21 660.77 636.66 C 655.77 643.59 649.18 649.83 641.08 652.92 C 633.37 656.21 625.92 660.09 618.56 664.08 C 618.17 664.62 617.77 665.17 617.38 665.71 C 617.40 665.08 617.44 663.80 617.47 663.17 C 623.72 659.16 631.06 656.74 636.44 651.45 C 643.21 644.62 643.88 633.76 651.58 627.67 C 654.92 625.34 658.17 622.69 659.99 618.95 C 665.19 610.91 667.31 601.49 670.26 592.51 C 670.02 592.19 669.56 591.55 669.33 591.24 C 669.74 590.99 670.55 590.50 670.96 590.25 C 673.23 584.92 674.07 578.98 677.01 573.95 C 678.45 572.90 680.82 572.26 682.37 573.39 C 681.32 582.88 678.33 592.00 675.06 600.92 C 674.10 603.49 672.76 607.92 676.85 608.17 C 681.38 603.23 684.69 597.34 687.20 591.16 C 690.35 585.20 692.38 578.73 693.66 572.13 C 693.94 568.89 697.66 568.71 700.05 567.89 C 718.16 563.38 735.49 556.32 753.49 551.48 C 751.63 567.49 745.44 582.73 737.82 596.81 C 734.51 606.94 733.09 617.72 728.58 627.45 C 719.80 643.03 711.28 659.01 699.40 672.52 C 696.14 676.35 690.64 676.71 687.07 680.09 C 681.99 684.64 676.67 688.91 671.41 693.24 C 664.81 698.32 659.15 704.55 652.22 709.20 C 633.28 723.12 611.19 731.66 589.52 740.27 C 587.49 740.87 586.94 743.00 586.21 744.72 C 591.31 748.45 597.55 745.40 602.88 743.89 C 609.64 741.05 616.40 738.17 623.03 735.01 C 630.85 730.45 638.78 726.09 646.70 721.71 C 656.17 717.09 665.53 712.16 674.01 705.88 C 677.79 702.99 681.49 700.00 685.58 697.56 C 685.85 697.97 686.12 698.39 686.41 698.82 C 682.19 707.12 676.90 714.96 669.97 721.25 C 659.33 730.80 648.79 740.65 636.31 747.78 C 636.59 745.36 639.29 744.40 640.78 742.77 C 645.90 737.97 652.26 733.83 655.12 727.17 C 653.73 727.32 652.29 727.31 651.03 727.95 C 642.44 731.87 634.95 737.88 626.09 741.24 C 614.22 746.63 601.85 750.89 589.23 754.13 C 580.95 755.95 572.21 757.63 563.89 755.03 C 559.05 753.37 554.20 751.45 549.03 751.31 C 544.60 750.72 540.19 752.68 535.80 751.49 C 532.71 750.74 529.57 750.10 526.37 750.11 L 526.28 748.77 C 540.57 747.20 554.55 743.54 568.21 739.13 C 570.90 738.48 572.61 736.11 572.93 733.46 C 569.56 732.46 566.18 733.81 562.87 734.37 C 552.70 736.79 542.47 739.36 531.99 739.89 C 522.90 739.82 513.68 740.44 504.74 738.39 C 489.65 745.00 474.24 750.86 459.14 757.43 C 445.66 762.61 431.99 767.26 418.49 772.39 C 412.27 774.52 405.98 776.48 399.94 779.10 C 404.74 782.48 410.54 784.04 416.00 786.03 C 435.66 793.03 456.25 797.14 476.92 799.75 C 522.62 805.46 569.61 800.58 613.08 785.33 C 621.11 783.09 628.48 779.14 636.28 776.28 C 662.58 764.80 687.36 749.79 709.29 731.23 C 739.99 704.55 767.53 673.48 786.25 637.14 C 793.41 624.19 798.36 610.21 803.52 596.39 C 812.62 570.19 817.51 542.69 819.91 515.11 C 819.98 513.21 819.92 511.26 820.69 509.48 M 731.49 570.78 C 728.81 571.47 728.54 576.62 732.11 576.23 C 735.79 575.90 735.50 569.47 731.49 570.78 M 722.88 581.28 C 722.75 582.58 722.65 583.88 722.56 585.20 C 723.66 585.52 724.79 585.79 725.93 586.02 C 727.86 585.57 728.35 582.81 727.50 581.28 C 726.16 580.10 724.37 581.12 722.88 581.28 M 716.10 596.11 C 712.96 598.93 709.96 602.00 707.85 605.69 C 703.61 612.22 703.57 620.50 699.35 627.05 C 697.87 630.18 694.14 632.68 695.35 636.55 C 699.57 638.66 703.09 634.42 706.33 632.34 C 713.78 625.04 717.97 615.07 720.52 605.12 C 721.41 602.31 721.23 599.42 720.20 596.70 C 718.92 596.22 717.28 594.65 716.10 596.11 M 687.39 644.43 C 681.49 648.50 677.31 654.46 673.57 660.45 C 671.94 662.74 672.78 667.42 676.18 667.32 C 680.05 666.21 683.88 664.59 687.00 661.99 C 689.56 659.54 691.47 656.51 693.42 653.57 C 694.78 651.55 695.90 648.82 694.55 646.52 C 693.52 643.86 689.66 642.99 687.39 644.43 M 413.87 664.32 C 416.52 667.07 420.12 669.13 423.93 669.68 C 420.94 667.45 417.81 664.19 413.87 664.32 M 649.42 688.57 C 645.93 690.03 642.99 693.16 642.13 696.91 C 641.81 698.63 642.71 701.28 644.95 700.73 C 649.98 699.42 655.93 697.33 657.82 691.93 C 657.63 687.64 652.45 687.84 649.42 688.57 M 382.11 697.31 C 382.44 699.16 382.64 701.21 384.01 702.64 C 388.66 707.82 395.11 710.97 401.60 713.19 C 403.17 713.79 404.58 712.59 405.98 712.08 C 405.96 709.53 405.85 706.77 404.11 704.74 C 400.86 700.85 395.74 699.44 391.05 698.14 C 388.14 697.38 385.04 695.68 382.11 697.31 M 417.39 713.56 C 417.73 714.30 418.41 715.79 418.74 716.53 C 421.68 717.63 424.65 718.82 427.85 718.88 C 427.82 717.80 427.79 716.73 427.75 715.67 C 424.27 715.08 420.94 713.69 417.39 713.56 M 586.99 728.91 C 587.38 729.92 587.77 730.95 588.16 731.98 C 590.62 732.36 592.88 729.92 591.38 727.61 C 589.78 726.27 588.21 727.98 586.99 728.91 Z"
       id="path83"
       style="fill:#000000;fill-opacity:1" />
    <path
       fill="#fcfefd"
       opacity="1.00"
       d=" M 768.29 546.88 C 771.04 545.49 773.91 544.40 776.80 543.33 C 776.74 547.31 775.56 551.15 774.94 555.06 C 773.12 564.35 771.34 573.95 766.07 582.02 C 763.80 586.28 759.33 588.81 757.20 593.17 C 754.57 598.35 754.09 604.32 751.60 609.57 C 748.42 616.55 744.42 623.34 739.03 628.83 C 739.52 625.52 741.80 622.92 742.96 619.87 C 746.13 611.72 749.17 603.47 751.03 594.91 C 753.85 585.04 758.30 575.72 762.72 566.48 C 765.68 560.34 767.87 553.72 768.29 546.88 Z"
       id="path85"
       style="fill:#000000;fill-opacity:1" />
    <path
       fill="#fcfefd"
       opacity="1.00"
       d=" M 772.23 604.88 C 775.11 599.39 774.70 592.13 779.59 587.83 C 780.35 594.04 775.92 599.14 773.41 604.43 C 773.11 604.54 772.53 604.76 772.23 604.88 Z"
       id="path87"
       style="fill:#000000;fill-opacity:1" />
    <path
       fill="#fcfefd"
       opacity="1.00"
       d=" M 671.88 628.53 C 674.05 625.32 675.34 621.11 678.78 619.01 C 678.01 622.68 674.94 625.22 673.06 628.34 C 673.55 628.37 674.53 628.44 675.02 628.48 C 674.24 628.49 672.67 628.52 671.88 628.53 Z"
       id="path89"
       style="fill:#000000;fill-opacity:1" />
    <path
       fill="#fcfefd"
       opacity="1.00"
       d=" M 618.64 645.46 C 626.66 640.17 632.33 632.01 640.09 626.49 C 635.04 634.18 630.22 642.22 623.52 648.62 C 618.80 652.20 614.66 656.44 610.10 660.20 C 601.94 667.97 594.69 677.16 584.44 682.31 C 580.58 684.38 576.14 685.69 571.75 685.21 C 570.92 681.38 573.75 677.53 577.43 676.55 C 582.88 673.92 588.29 670.88 592.59 666.53 C 596.76 662.69 598.83 657.02 603.49 653.65 C 608.19 650.31 613.80 648.57 618.64 645.46 Z"
       id="path91"
       style="fill:#000000;fill-opacity:1" />
    <path
       fill="#fcfefd"
       opacity="1.00"
       d=" M 742.93 655.92 C 748.15 650.22 753.37 644.48 757.84 638.16 C 757.18 642.11 754.72 645.41 752.76 648.80 C 747.95 657.14 741.22 664.17 734.38 670.87 C 735.88 674.48 733.48 677.83 731.40 680.60 C 725.10 688.54 716.94 694.65 709.52 701.45 C 703.02 707.43 695.40 711.97 687.97 716.66 C 688.69 714.38 690.59 712.81 691.91 710.90 C 695.72 705.52 699.10 699.84 702.36 694.11 C 703.88 691.47 706.01 689.10 708.79 687.76 C 711.18 686.50 714.08 686.01 715.91 683.87 C 718.50 681.56 719.75 678.29 721.21 675.25 C 722.58 672.12 725.64 670.36 728.15 668.25 C 733.08 664.15 738.64 660.75 742.93 655.92 Z"
       id="path93"
       style="fill:#000000;fill-opacity:1" />
    <path
       fill="#fcfefd"
       opacity="1.00"
       d=" M 424.41 649.07 C 426.25 648.68 428.09 648.12 429.99 648.12 C 432.41 649.99 434.52 652.32 437.33 653.65 C 444.73 657.29 453.33 657.44 460.66 661.29 C 468.87 665.64 477.64 669.42 487.01 670.14 C 495.99 670.82 505.04 670.80 514.01 670.02 C 520.81 669.04 527.41 667.05 534.02 665.23 C 533.17 667.89 530.27 668.78 527.89 669.61 C 519.74 671.99 511.27 672.81 502.89 673.97 C 493.18 675.47 483.27 674.58 473.61 673.14 C 461.78 671.40 451.39 665.14 440.69 660.24 C 435.19 656.69 428.26 654.65 424.41 649.07 Z"
       id="path95"
       style="fill:#000000;fill-opacity:1" />
    <path
       fill="#fcfefd"
       opacity="1.00"
       d=" M 552.47 657.72 C 558.67 656.07 564.77 653.91 571.15 653.07 C 564.99 656.54 559.15 661.04 551.99 662.28 C 550.73 662.51 547.63 661.93 548.97 660.04 C 549.26 658.43 551.24 658.30 552.47 657.72 Z"
       id="path97"
       style="fill:#000000;fill-opacity:1" />
    <path
       fill="#fcfefd"
       opacity="1.00"
       d=" M 399.27 680.94 C 400.29 679.84 401.40 679.66 402.61 680.40 C 406.22 682.41 409.74 684.59 413.35 686.61 C 411.68 688.07 409.24 687.71 407.40 686.77 C 404.34 685.38 401.46 683.52 399.27 680.94 Z"
       id="path99"
       style="fill:#000000;fill-opacity:1" />
    <path
       fill="#fcfefd"
       opacity="1.00"
       d=" M 338.61 703.67 C 341.03 701.82 343.23 704.76 344.62 706.47 C 350.65 714.33 358.16 720.82 364.95 728.00 C 368.17 731.55 372.38 733.98 375.78 737.35 C 377.36 738.53 375.83 740.11 374.97 741.15 C 367.03 737.42 359.66 732.61 352.62 727.40 C 348.15 724.26 342.32 722.81 339.16 718.02 C 336.54 713.88 335.06 707.69 338.61 703.67 Z"
       id="path101"
       style="fill:#000000;fill-opacity:1" />
    <path
       fill="#fcfefd"
       opacity="1.00"
       d=" M 389.08 729.40 C 395.10 730.10 400.36 733.27 406.06 735.08 C 416.84 738.45 427.84 741.12 438.69 744.23 C 438.67 744.87 438.63 746.15 438.61 746.79 C 432.61 748.94 425.88 748.80 419.96 746.50 C 408.60 743.11 397.80 737.51 389.08 729.40 Z"
       id="path103"
       style="fill:#000000;fill-opacity:1" />
    <path
       fill="#fcfefd"
       opacity="1.00"
       d=" M 384.51 743.62 C 388.33 744.60 391.97 746.34 395.07 748.81 C 391.30 748.05 385.48 748.39 384.51 743.62 Z"
       id="path105"
       style="fill:#000000;fill-opacity:1" />
    <path
       fill="#fcfefd"
       opacity="1.00"
       d=" M 463.92 763.94 C 469.57 763.09 474.11 758.48 480.05 759.05 C 498.27 759.25 516.21 762.95 533.98 766.64 C 538.32 767.49 542.79 767.76 547.00 769.22 C 529.54 772.41 511.90 776.72 494.03 774.85 C 484.63 773.41 475.13 772.55 465.84 770.51 C 462.86 769.95 460.10 768.57 457.59 766.91 C 458.35 764.33 461.81 764.83 463.92 763.94 Z"
       id="path107"
       style="fill:#000000;fill-opacity:1" />
  </g>
</svg>
